<?xml version="1.0" encoding="UTF-8"?>
<svg id="Camada_1" xmlns="http://www.w3.org/2000/svg" version="1.1" viewBox="0 0 50 50">
  <!-- Generator: Adobe Illustrator 29.6.0, SVG Export Plug-In . SVG Version: 2.1.1 Build 207)  -->
  <defs>
    <style>
      .st0 {
        fill: #0ca53f;
      }
    </style>
  </defs>
  <path class="st0" d="M38.2,8.9c-1.6,0-2.9,1.3-2.9,2.9s1.3,2.9,2.9,2.9,2.9-1.3,2.9-2.9-1.3-2.9-2.9-2.9Z"/>
  <path class="st0" d="M25.2,12.7c-6.8,0-12.3,5.5-12.3,12.3s5.5,12.3,12.3,12.3,12.3-5.5,12.3-12.3-5.5-12.3-12.3-12.3ZM25.2,32.9c-4.3,0-7.9-3.5-7.9-7.9s3.5-7.9,7.9-7.9,7.9,3.5,7.9,7.9-3.5,7.9-7.9,7.9Z"/>
  <path class="st0" d="M35,50H15C6.7,50,0,43.3,0,35V15C0,6.7,6.7,0,15,0h20c8.3,0,15,6.7,15,15v20c0,8.3-6.7,15-15,15ZM15,4.7c-5.7,0-10.3,4.6-10.3,10.3v20c0,5.7,4.6,10.3,10.3,10.3h20c5.7,0,10.3-4.6,10.3-10.3V15c0-5.7-4.6-10.3-10.3-10.3H15Z"/>
</svg>